<svg 
    fill="#000000" 
    xmlns="http://www.w3.org/2000/svg" 
    viewBox="0 0 80 80" 
    width="80px" 
    height="80px">

    <path 
        fill="none" 
        stroke="#000000" 
        stroke-miterlimit="10" 
        stroke-width="2" 
        d="M70 33.118L70 70 10 70 10 33.118"
    />
    <path 
        fill="none" 
        stroke="#000000" 
        stroke-miterlimit="10" 
        stroke-width="2" 
        d="M8 34L40 14 72 34 72 27 40 7 8 27zM32 45H48V70H32z"
    />
    <path 
        d="M43.5 57A1.5 1.5 0 1 0 43.5 60 1.5 1.5 0 1 0 43.5 57zM69 62A1 1 0 1 0 69 64 1 1 0 1 0 69 62zM65 62A1 1 0 1 0 65 64 1 1 0 1 0 65 62zM61 62A1 1 0 1 0 61 64 1 1 0 1 0 61 62zM57 62A1 1 0 1 0 57 64 1 1 0 1 0 57 62zM53 62A1 1 0 1 0 53 64 1 1 0 1 0 53 62zM49 62A1 1 0 1 0 49 64 1 1 0 1 0 49 62zM23 62A1 1 0 1 0 23 64 1 1 0 1 0 23 62zM27 62A1 1 0 1 0 27 64 1 1 0 1 0 27 62zM31 62A1 1 0 1 0 31 64 1 1 0 1 0 31 62zM19 62A1 1 0 1 0 19 64 1 1 0 1 0 19 62zM15 62A1 1 0 1 0 15 64 1 1 0 1 0 15 62zM11 62A1 1 0 1 0 11 64 1 1 0 1 0 11 62z"
    />
    <path 
        fill="none" 
        stroke="#000000" 
        stroke-miterlimit="10" 
        stroke-width="2" 
        d="M32 26H48V36H32zM40 36L40 26"/>
</svg>